<svg id="Layer_1" data-name="Layer 1" xmlns="http://www.w3.org/2000/svg" viewBox="0 0 759 806">
  <defs>
    <style>
      .cls-1 {
        fill: #d2f1ff;
      }

      .cls-2 {
        fill: #eef9ff;
      }

      .cls-3 {
        fill: #3e4860;
      }

      .cls-4 {
        fill: #ceecec;
      }

      .cls-5 {
        fill: #ceebff;
      }

      .cls-6 {
        fill: #87cce9;
      }

      .cls-13, .cls-7 {
        fill: #f7cd5f;
      }

      .cls-22, .cls-8 {
        fill: #fff;
      }

      .cls-9 {
        fill: #ea55a6;
      }

      .cls-10, .cls-12, .cls-14, .cls-15 {
        fill: none;
      }

      .cls-10, .cls-22 {
        stroke: #3e4860;
      }

      .cls-10, .cls-12, .cls-13, .cls-14, .cls-15, .cls-22 {
        stroke-miterlimit: 10;
      }

      .cls-10, .cls-13, .cls-14, .cls-15 {
        stroke-width: 4px;
      }

      .cls-11 {
        fill: #61d398;
      }

      .cls-12, .cls-15 {
        stroke: #61d398;
      }

      .cls-12 {
        stroke-width: 11px;
      }

      .cls-13 {
        stroke: #f7cd5f;
      }

      .cls-14 {
        stroke: #ea55a6;
      }

      .cls-16 {
        fill: #474e6c;
      }

      .cls-17 {
        fill: #e4a4ac;
      }

      .cls-18 {
        fill: #e0e0e0;
      }

      .cls-19 {
        fill: #603813;
      }

      .cls-20 {
        fill: #ff3f84;
      }

      .cls-21 {
        fill: #983262;
      }

      .cls-22 {
        stroke-width: 8px;
      }
    </style>
  </defs>
  <title>Ysashank 5</title>
  <g>
    <path class="cls-1" d="M114.57,408.79a265.37,265.37,0,0,1,84.32-194.54c9.27-8.76-4.73-22.73-14-14-43.62,41.19-74.07,95.91-85.07,155a297.15,297.15,0,0,0-5,53.56c0,12.73,19.75,12.75,19.78,0Z"/>
    <path class="cls-1" d="M284.86,657.5A267.7,267.7,0,0,1,161,559.16a280.27,280.27,0,0,1-23.1-41.08c-2.22-4.86-9.25-6.05-13.53-3.55-5,2.92-5.78,8.66-3.55,13.53A288.46,288.46,0,0,0,234.68,654.91a294.65,294.65,0,0,0,44.92,21.67c5,1.93,10.85-2.12,12.17-6.91,1.54-5.59-1.91-10.23-6.91-12.17Z"/>
    <path class="cls-1" d="M647.71,408.79c-.17,64.62-23.7,127.92-66.64,176.35a269.37,269.37,0,0,1-38.63,36c-4.25,3.22-6.47,8.53-3.55,13.53,2.45,4.19,9.25,6.79,13.53,3.55,54.75-41.51,94.19-101.3,108.6-168.72a294.5,294.5,0,0,0,6.46-60.7c0-12.73-19.75-12.75-19.78,0Z"/>
    <path class="cls-1" d="M286.07,159.63c74.09-27.74,158-21.87,226.85,17.39a268.7,268.7,0,0,1,49,35.89c9.35,8.61,23.37-5.34,14-14-59.5-54.81-140.47-82.85-221.18-75.24a287.76,287.76,0,0,0-74,16.87c-5,1.87-8.41,6.69-6.91,12.17,1.32,4.8,7.14,8.79,12.17,6.91Z"/>
    <circle class="cls-2" cx="639.01" cy="291.72" r="91.57"/>
    <rect class="cls-3" x="606.8" y="264.68" width="63.58" height="87.09"/>
    <circle class="cls-2" cx="381.14" cy="408.79" r="162.96"/>
    <circle class="cls-2" cx="119.99" cy="291.72" r="91.57"/>
    <circle class="cls-2" cx="155.79" cy="589.61" r="91.57"/>
    <ellipse class="cls-4" cx="416.38" cy="764.34" rx="214.44" ry="13.66"/>
    <path class="cls-3" d="M118.92,553.17l-2.68-2.26a2.12,2.12,0,0,0-2.82.08l-1.48,1.39a15.3,15.3,0,0,0-3.95-1.28l-.42-2a2.14,2.14,0,0,0-2.26-1.7l-3.5.3a2.13,2.13,0,0,0-1.95,2.05l-.07,2.08a15.35,15.35,0,0,0-3.77,2l-1.77-1.17a2.13,2.13,0,0,0-2.8.4l-2.26,2.7a2.12,2.12,0,0,0,.08,2.82l1.55,1.65a15.86,15.86,0,0,0-1.14,3.78l-2.21.45a2.14,2.14,0,0,0-1.7,2.26l.3,3.5a2.13,2.13,0,0,0,2.05,1.95l2.39.08a15.63,15.63,0,0,0,1.69,3.23l-1.34,2a2.13,2.13,0,0,0,.4,2.8l2.68,2.26a2.12,2.12,0,0,0,2.82-.08l1.75-1.64a15.36,15.36,0,0,0,3.6,1.17l.49,2.4a2.14,2.14,0,0,0,2.26,1.7l3.5-.3a2.13,2.13,0,0,0,1.95-2.05l.08-2.35a15.73,15.73,0,0,0,3.6-1.82l1.93,1.28a2.13,2.13,0,0,0,2.8-.4l2.26-2.68a2.12,2.12,0,0,0-.08-2.82l-1.56-1.65a15.32,15.32,0,0,0,1.23-3.79l2.13-.43a2.14,2.14,0,0,0,1.7-2.26l-.3-3.5A2.13,2.13,0,0,0,122,561.3l-2.14-.07a15.45,15.45,0,0,0-1.78-3.51L119.3,556A2.12,2.12,0,0,0,118.92,553.17Zm-13.18,20.22A6.87,6.87,0,1,1,112,566,6.87,6.87,0,0,1,105.74,573.38Z"/>
    <circle class="cls-2" cx="639.01" cy="553.59" r="91.57"/>
    <circle class="cls-5" cx="381.14" cy="108.57" r="91.57"/>
    <rect class="cls-6" x="109.63" y="533.09" width="92.31" height="118.69" rx="10.36" ry="10.36"/>
    <path class="cls-7" d="M176.2,531.84H162.76a7.06,7.06,0,1,0-13.94,0H135.38a2.35,2.35,0,0,0-2.35,2.35v13.19a2.35,2.35,0,0,0,2.35,2.35H176.2a2.35,2.35,0,0,0,2.35-2.35V534.19A2.35,2.35,0,0,0,176.2,531.84Z"/>
    <rect class="cls-8" x="119.68" y="562.61" width="72.22" height="8.16" rx="4.08" ry="4.08"/>
    <rect class="cls-8" x="119.68" y="581.45" width="72.22" height="8.16" rx="4.08" ry="4.08"/>
    <rect class="cls-8" x="119.68" y="600.29" width="72.22" height="8.16" rx="4.08" ry="4.08"/>
    <rect class="cls-8" x="119.68" y="619.12" width="44.25" height="8.16" rx="4.08" ry="4.08"/>
    <path class="cls-9" d="M225.59,576.65,221,572.78a3.62,3.62,0,0,0-4.83.13l-2.53,2.37a26.15,26.15,0,0,0-6.75-2.18l-.71-3.49a3.66,3.66,0,0,0-3.87-2.91l-6,.51a3.64,3.64,0,0,0-3.33,3.5l-.12,3.55a26.22,26.22,0,0,0-6.44,3.39l-3-2a3.63,3.63,0,0,0-4.78.68l-3.87,4.61a3.62,3.62,0,0,0,.13,4.83l2.65,2.82a27.1,27.1,0,0,0-1.95,6.46l-3.78.77a3.66,3.66,0,0,0-2.91,3.87l.51,6a3.64,3.64,0,0,0,3.5,3.33l4.09.13a26.7,26.7,0,0,0,2.89,5.53l-2.28,3.45a3.63,3.63,0,0,0,.68,4.78l4.58,3.87a3.62,3.62,0,0,0,4.83-.13l3-2.81a26.25,26.25,0,0,0,6.15,2l.83,4.1a3.66,3.66,0,0,0,3.87,2.91l6-.51a3.64,3.64,0,0,0,3.33-3.5l.13-4a26.88,26.88,0,0,0,6.15-3.11l3.3,2.18a3.63,3.63,0,0,0,4.78-.68l3.87-4.58a3.62,3.62,0,0,0-.13-4.83l-2.66-2.82a26.18,26.18,0,0,0,2.09-6.48l3.63-.74a3.66,3.66,0,0,0,2.91-3.87l-.51-6a3.64,3.64,0,0,0-3.5-3.33l-3.65-.12a26.4,26.4,0,0,0-3-6l2-3A3.61,3.61,0,0,0,225.59,576.65Zm-22.52,34.55a11.75,11.75,0,1,1,10.72-12.69A11.75,11.75,0,0,1,203.07,611.19Z"/>
    <g>
      <path class="cls-10" d="M71.63,305.06v16.56a23,23,0,0,0,23,23h18.67"/>
      <rect class="cls-11" x="102.65" y="337.09" width="25.35" height="11.77" rx="5.89" ry="5.89"/>
      <rect class="cls-9" x="90.82" y="273.51" width="60.91" height="45.21" rx="11.14" ry="11.14"/>
      <rect class="cls-8" x="102.65" y="283.87" width="37.15" height="8.16" rx="4.08" ry="4.08"/>
      <rect class="cls-8" x="102.65" y="298.94" width="21.31" height="8.16" rx="4.08" ry="4.08"/>
      <rect class="cls-11" x="157.75" y="273.51" width="23.52" height="47.41" rx="6.42" ry="6.42"/>
      <path class="cls-3" d="M181.28,281.36h0a4.4,4.4,0,0,1,4.4,4.4V307.1a4.4,4.4,0,0,1-4.4,4.4h0a0,0,0,0,1,0,0V281.36a0,0,0,0,1,0,0Z"/>
      <rect class="cls-11" x="59.06" y="272.41" width="25.15" height="47.41" rx="6.42" ry="6.42"/>
      <path class="cls-3" d="M54.36,280.26h0a4.67,4.67,0,0,1,4.67,4.67v20.81a4.67,4.67,0,0,1-4.67,4.67h0a0,0,0,0,1,0,0V280.26A0,0,0,0,1,54.36,280.26Z" transform="translate(113.42 590.66) rotate(180)"/>
      <path class="cls-12" d="M169.51,294V279.59a48.94,48.94,0,0,0-48.94-48.94h0a48.94,48.94,0,0,0-48.94,48.94V294"/>
      <polygon class="cls-9" points="99.74 313.54 99.74 327.44 109.87 313.54 99.74 313.54"/>
    </g>
    <rect class="cls-6" x="600.39" y="254.79" width="77.24" height="19.78"/>
    <rect class="cls-6" x="600.39" y="283.04" width="77.24" height="19.78"/>
    <rect class="cls-6" x="600.39" y="311.3" width="77.24" height="19.78"/>
    <rect class="cls-6" x="600.39" y="339.56" width="77.24" height="19.78"/>
    <g>
      <circle class="cls-8" cx="697.7" cy="291.72" r="12.25"/>
      <path class="cls-3" d="M697.7,306.33a14.6,14.6,0,1,1,14.6-14.6A14.62,14.62,0,0,1,697.7,306.33Zm0-24.49a9.89,9.89,0,1,0,9.89,9.89A9.9,9.9,0,0,0,697.7,281.83Z"/>
    </g>
    <line class="cls-13" x1="581.52" y1="292.9" x2="650.18" y2="245.84"/>
    <line class="cls-14" x1="595.98" y1="234.06" x2="650.18" y2="243.6"/>
    <circle class="cls-11" cx="595.98" cy="234.06" r="12.25"/>
    <line class="cls-15" x1="579.64" y1="291.72" x2="595.98" y2="234.06"/>
    <circle class="cls-7" cx="581.52" cy="292.9" r="13.82"/>
    <g>
      <line class="cls-16" x1="652.8" y1="246.31" x2="689.06" y2="283.04"/>
      <g>
        <g>
          <rect class="cls-16" x="666.2" y="259.51" width="2.83" height="4.79" transform="translate(8.51 544.54) rotate(-44.63)"/>
          <rect class="cls-16" x="660.16" y="253.39" width="2.83" height="4.79" transform="translate(11.05 538.5) rotate(-44.63)"/>
          <rect class="cls-16" x="654.15" y="247.3" width="2.83" height="4.79" transform="translate(13.6 532.52) rotate(-44.63)"/>
        </g>
        <g>
          <rect class="cls-16" x="684.33" y="277.88" width="2.83" height="4.79" transform="translate(0.84 562.6) rotate(-44.63)"/>
          <rect class="cls-16" x="678.3" y="271.76" width="2.83" height="4.79" transform="translate(3.38 556.55) rotate(-44.63)"/>
          <rect class="cls-16" x="672.28" y="265.67" width="2.83" height="4.79" transform="translate(5.92 550.55) rotate(-44.63)"/>
        </g>
      </g>
    </g>
    <circle class="cls-9" cx="650.18" cy="245.84" r="19.31"/>
    <g>
      <g>
        <path class="cls-6" d="M690.3,602.48H603.12A8.26,8.26,0,0,1,595,595l-8.74-80.6a8.34,8.34,0,0,1,8.1-9.39h87.18a8.26,8.26,0,0,1,8.1,7.5l8.74,80.6A8.34,8.34,0,0,1,690.3,602.48Z"/>
        <g>
          <path class="cls-8" d="M575.45,592.34a6.05,6.05,0,0,0,6,6.73h91.4a6.05,6.05,0,0,0,6-5.38L686,530.08H582.45Z"/>
          <path class="cls-9" d="M682.07,505h-91.4a6.05,6.05,0,0,0-6,5.38l-2.21,19.7H686l2.06-18.35A6.05,6.05,0,0,0,682.07,505Z"/>
        </g>
      </g>
      <rect class="cls-3" x="605.17" y="495.73" width="7.75" height="20.08" rx="3.67" ry="3.67"/>
      <rect class="cls-3" x="658.02" y="495.73" width="7.75" height="20.08" rx="3.67" ry="3.67"/>
    </g>
    <g>
      <path class="cls-5" d="M673.68,536H659.31a1,1,0,0,0-.95.85l-.35,3.1-1.1,9.79a1,1,0,0,0,.95,1.06h14.38a1,1,0,0,0,.95-.85l1.12-10,.32-2.89A1,1,0,0,0,673.68,536Z"/>
      <path class="cls-5" d="M650.13,536H635.76a1,1,0,0,0-.95.85l-.35,3.1-1.1,9.79a1,1,0,0,0,.95,1.06h14.38a1,1,0,0,0,.95-.85l1.12-10,.32-2.89A1,1,0,0,0,650.13,536Z"/>
      <path class="cls-5" d="M625.64,536H611.27a1,1,0,0,0-.95.85l-.35,3.1-1.1,9.79a1,1,0,0,0,.95,1.06H624.2a1,1,0,0,0,.95-.85l1.12-10,.32-2.89A1,1,0,0,0,625.64,536Z"/>
    </g>
    <g>
      <path class="cls-5" d="M670.86,556.68H656.48a1,1,0,0,0-.95.85l-.35,3.1-1.1,9.79a1,1,0,0,0,.95,1.06h14.38a1,1,0,0,0,.95-.85l1.12-10,.32-2.89A1,1,0,0,0,670.86,556.68Z"/>
      <path class="cls-5" d="M647.31,556.68H632.93a1,1,0,0,0-.95.85l-.35,3.1-1.1,9.79a1,1,0,0,0,.95,1.06h14.38a1,1,0,0,0,.95-.85l1.12-10,.32-2.89A1,1,0,0,0,647.31,556.68Z"/>
      <path class="cls-5" d="M622.82,556.68H608.44a1,1,0,0,0-.95.85l-.35,3.1-1.1,9.79a1,1,0,0,0,.95,1.06h14.38a1,1,0,0,0,.95-.85l1.12-10,.32-2.89A1,1,0,0,0,622.82,556.68Z"/>
    </g>
    <g>
      <path class="cls-5" d="M668,575.51H653.66a1,1,0,0,0-.95.85l-.35,3.1-1.1,9.79a1,1,0,0,0,.95,1.06h14.38a1,1,0,0,0,.95-.85l1.12-10,.32-2.89A1,1,0,0,0,668,575.51Z"/>
      <path class="cls-5" d="M644.48,575.51H630.11a1,1,0,0,0-.95.85l-.35,3.1-1.1,9.79a1,1,0,0,0,.95,1.06H643a1,1,0,0,0,.95-.85l1.12-10,.32-2.89A1,1,0,0,0,644.48,575.51Z"/>
      <path class="cls-5" d="M620,575.51H605.62a1,1,0,0,0-.95.85l-.35,3.1-1.1,9.79a1,1,0,0,0,.95,1.06h14.38a1,1,0,0,0,.95-.85l1.12-10,.32-2.89A1,1,0,0,0,620,575.51Z"/>
    </g>
    <g>
      <path class="cls-11" d="M607.84,593.15h0m.37,0h0m.35,0h0m.39,0h0m.33,0h0m.4,0h0m.35,0h0m.37,0h0m.38,0h0m.33,0h0m.4-.06-.11,0,.11,0m.36-.06-.15,0,.15,0m.36-.06-.14,0,.14,0m.39-.07-.2,0,.2,0m.31-.06-.14,0,.14,0m.4-.09-.16,0,.16,0m.36-.08-.22.05.22-.05m.34-.08-.16,0,.16,0m.38-.1-.26.07.26-.07m.3-.08-.17,0,.17,0m.39-.11-.26.07.26-.07m.31-.09-.2.06.2-.06m.36-.11-.16.05.16-.05m.39-.13-.27.09.27-.09m.28-.09-.16.05.16-.05m.36-.13-.21.08.21-.08m.29-.11-.13,0,.13,0m.35-.13-.1,0,.1,0m.29-.11-.08,0,.08,0m.34-.14-.05,0,.05,0m4-2-.61.36h0l.61-.36m.22-.13h0l-.2.12.2-.12m-11.63-56.92c-15.82,0-29.37,13.7-30.26,30.6A31,31,0,0,0,583.48,578a4.58,4.58,0,0,1,3.13-2l.7-.1L588.2,559l.12-2.22c.32-6.12,5.19-11.17,10.92-11.2h0a9.55,9.55,0,0,1,8.06,4.41c1.42-5,5.82-8.8,10.86-8.82h0c5.94,0,10.48,5.14,10.15,11.48l-.41,7.75h-1.59a9.33,9.33,0,0,1-4.55,6.44l-1.35.76h.1a2,2,0,0,1,1.94,1.63l.51,2.41,6.81.94a4.93,4.93,0,0,1,4.06,3.78,33.36,33.36,0,0,0,3.79-13.77c.89-16.9-11.22-30.6-27-30.6"/>
      <path class="cls-17" d="M632.9,578.11a32.26,32.26,0,0,1-10.61,10.75h0a32.19,32.19,0,0,0,10.61-10.75m.13-.21-.11.19.11-.19m.13-.21-.1.17.1-.17m.13-.22-.09.15.09-.15m.13-.23-.08.13.08-.13m.13-.22-.06.11.06-.11m.13-.23-.05.1.05-.1m.13-.24-.06.1.06-.1M623,571.61h0l6.81.94-6.81-.94m-4.86-1.36-.12,2.25a6.69,6.69,0,0,1-.36,1.83,8.17,8.17,0,0,0,1-.21h0l.2-.06h0l.12,0,.19-3.7a9.11,9.11,0,0,1-1-.06"/>
      <path class="cls-17" d="M621.11,550.61s-4.92,4.52-11.12,4.52c-.31,0-.62,0-.93,0a11.86,11.86,0,0,1,0,1.52l-.21,4.06a7.32,7.32,0,0,1,3.32-.84h.06a7.32,7.32,0,0,1,7.14,7.74h1.11l1.35-.76a9.33,9.33,0,0,0,4.55-6.44h0l.2-3.81c-3.28-.9-5.45-5.95-5.45-5.95"/>
      <path class="cls-8" d="M618.68,574.11a8.17,8.17,0,0,1-1,.21h0a8.26,8.26,0,0,0,1-.21m.2-.06-.2.06.2-.06m.15,0-.12,0,.12,0h0m4-2.4h0l2.79.38-2.13,2.74.07.34h-.33l-2.83,3.64-3.31-3.44a6.4,6.4,0,0,1-2.53,2.62l-1,.58a5.43,5.43,0,0,1-.65.31L613,580a1.23,1.23,0,0,0,1,1.33l5.07.7a3.08,3.08,0,0,1,2.56,3.32l-.21,4,.61-.36h0l.2-.12a32.26,32.26,0,0,0,10.61-10.75v0l.11-.19,0,0,.1-.17,0-.07.09-.15.05-.09.08-.13.06-.11.06-.11.08-.14.05-.1.07-.13.06-.1.12-.23h0a4.93,4.93,0,0,0-4.06-3.78l-6.81-.94"/>
      <path class="cls-18" d="M619,574l-.12,0h0l-.2.06h0a8.26,8.26,0,0,1-1,.21,6.72,6.72,0,0,1-.41.94l3.31,3.44,2.83-3.64H619L619,574m4-2.4.66,3.12,2.13-2.74-2.79-.38"/>
      <path class="cls-3" d="M618.24,541.13h0c-5,0-9.44,3.79-10.86,8.82a10.87,10.87,0,0,1,1.72,5.14c.31,0,.62,0,.93,0,6.2,0,11.12-4.52,11.12-4.52s2.17,5.05,5.45,5.95l-.2,3.81H628l.41-7.75c.33-6.35-4.2-11.48-10.15-11.48"/>
      <path class="cls-3" d="M588.2,559l-.89,16.92,5.28-.72h0l1.09-.15a1.93,1.93,0,0,0,1.6-1.83l.09-1.66a6.53,6.53,0,0,1-.83-.41l-1.33-.8a7.75,7.75,0,0,1-3.58-5.17l-.06,1.19a7.86,7.86,0,0,1-.68,2.8l-1.37,3.08.7-13.25"/>
      <path class="cls-19" d="M605.2,570.25a9.31,9.31,0,0,1-1.07.06l-.25,4.76H602.2l.62.09h0l2.86.39a6.24,6.24,0,0,1-.6-3.05l.12-2.25"/>
      <path class="cls-17" d="M583.64,578.29h0m11.72-6.77-.09,1.66a1.93,1.93,0,0,1-1.6,1.83l-1.09.15a6.42,6.42,0,0,0,5,2.37,7.17,7.17,0,0,0,5.24-2.37l-.62-.09h-3.11l1.09-3.45a7,7,0,0,1-2.3.4,6.57,6.57,0,0,1-2.52-.5"/>
      <path class="cls-17" d="M602.89,554.32s-3.66,4.55-13,5.81l-.26,5a7.75,7.75,0,0,0,3.58,5.17l1.33.8a6.56,6.56,0,0,0,3.35.91,7,7,0,0,0,2.3-.4l.77-2.42a2.26,2.26,0,0,1,2.1-1.63h1.23v.08A8.94,8.94,0,0,1,607,562l.1-1.81a14.55,14.55,0,0,1-4.25-5.82"/>
      <path class="cls-9" d="M602.82,575.15h0a7.17,7.17,0,0,1-5.24,2.37,6.42,6.42,0,0,1-5-2.37h0l-5.28.72-.7.1a4.58,4.58,0,0,0-3.13,2h0l.16.32h0A26.59,26.59,0,0,0,607,593.15h-.41q-1,0-1.92-.12h0a25.83,25.83,0,0,1-4.94-1l.09-1.78.26-4.91A3.51,3.51,0,0,1,603,582l4.35-.59h0l.79-.11a1.4,1.4,0,0,0,1.17-1.33l.06-1.2a4.79,4.79,0,0,1-.61-.3l-1-.58a5.46,5.46,0,0,1-2.13-2.34l-2.86-.39"/>
      <path class="cls-3" d="M599.28,545.53h0c-5.73,0-10.6,5.07-10.92,11.2L588.2,559l-.7,13.25,1.37-3.08a7.86,7.86,0,0,0,.68-2.8l.06-1.19.26-5c9.35-1.26,13-5.81,13-5.81a14.55,14.55,0,0,0,4.25,5.82L607,562a8.18,8.18,0,0,1,1.82-1.29l.21-4.06a11.86,11.86,0,0,0,0-1.52,10.87,10.87,0,0,0-1.72-5.14,9.55,9.55,0,0,0-8.06-4.41"/>
      <path class="cls-17" d="M607,593.14h0m-.33,0h0m-2-.13h0q.95.1,1.92.12-1,0-1.92-.13m16.77-3.65a28.23,28.23,0,0,1-14,3.79H609l.29,0h0l.32,0h.09l.31,0h0l.27,0h.1l.3,0h.08l.24,0h.09l.29,0,.11,0,.21,0,.15,0,.22,0,.14,0,.19,0,.2,0,.16,0,.14,0,.24-.05.16,0,.14,0,.22-.05.17,0,.16,0,.13,0,.26-.07.13,0,.17,0,.13,0,.26-.07.11,0,.2-.06.2-.06.16-.05.12,0,.27-.09.12,0,.16-.05.15-.05.21-.08.16-.06.13,0,.25-.09.1,0,.21-.08.08,0L618,591l.05,0a29.69,29.69,0,0,0,3.38-1.65m-12.07-10.59-.06,1.2a1.4,1.4,0,0,1-1.17,1.33l-.79.11a4.67,4.67,0,0,0,3.64,1.73,5.23,5.23,0,0,0,3.82-1.73l4.3.59-5.07-.7a1.23,1.23,0,0,1-1-1.33l.06-1.2a5.08,5.08,0,0,1-1.86.36,4.79,4.79,0,0,1-1.83-.36"/>
      <path class="cls-17" d="M611.88,566.37a10.22,10.22,0,0,1-6.68,3.87l-.12,2.25a6.24,6.24,0,0,0,.6,3.05,5.46,5.46,0,0,0,2.13,2.34l1,.58a4.79,4.79,0,0,0,2.44.67,5.08,5.08,0,0,0,1.86-.36,5.43,5.43,0,0,0,.65-.31l1-.58a6.4,6.4,0,0,0,2.53-2.62,6.72,6.72,0,0,0,.41-.94h0a6.69,6.69,0,0,0,.36-1.83l.12-2.25a9,9,0,0,1-6.3-3.87"/>
      <path class="cls-6" d="M614.82,581.41a5.23,5.23,0,0,1-3.82,1.73,4.67,4.67,0,0,1-3.64-1.73h0L603,582a3.51,3.51,0,0,0-2.91,3.32l-.26,4.91-.09,1.78a25.83,25.83,0,0,0,4.94,1q1,.1,1.92.13h.83a28.23,28.23,0,0,0,14-3.79h0l.21-4a3.08,3.08,0,0,0-2.56-3.32l-4.3-.59"/>
      <path class="cls-3" d="M612.18,559.83a7.32,7.32,0,0,0-3.32.84A8.18,8.18,0,0,0,607,562a8.94,8.94,0,0,0-2.77,5.69l-.14,2.66a9.31,9.31,0,0,0,1.07-.06,10.22,10.22,0,0,0,6.68-3.87,9,9,0,0,0,6.3,3.87,9.11,9.11,0,0,0,1,.06,8.91,8.91,0,0,1-7.35-3.93l0,.06.35-6.6"/>
      <path class="cls-3" d="M612.23,559.83h-.06l-.35,6.6,0-.06a8.91,8.91,0,0,0,7.35,3.93l.14-2.74h0a7.32,7.32,0,0,0-7.14-7.74"/>
      <path class="cls-3" d="M603.08,567.57h0a2.26,2.26,0,0,0-2.1,1.63l-.77,2.42-1.09,3.45h4.79l.25-4.76h-1.2l.14-2.74"/>
      <polyline class="cls-20" points="604.27 567.57 603.08 567.57 602.93 570.31 604.13 570.31 604.27 567.65 604.27 567.57"/>
      <path class="cls-3" d="M620.59,567.57h0l-.14,2.74h-1.2l.14-2.74-.14,2.74L619,574h0l-.06,1.06h4.79l-.07-.34-.66-3.12h0l-.51-2.41a2,2,0,0,0-1.94-1.63"/>
      <polyline class="cls-21" points="620.57 567.57 620.49 567.57 619.37 567.57 619.37 567.57 619.22 570.31 620.43 570.31 620.57 567.57"/>
    </g>
    <g>
      <path class="cls-8" d="M410.86,49.78H355.13c-3.69,0-6.68,2.71-6.68,6V161.32c0,3.34,3,6,6.68,6h77.15c3.69,0,6.68-2.71,6.68-6V80.5Z"/>
      <path class="cls-11" d="M410.86,49.78v23c0,4.24,3.8,7.68,8.48,7.68H439Z"/>
      <rect class="cls-11" x="358.1" y="90.96" width="25.59" height="11.5"/>
      <rect class="cls-11" x="358.1" y="107.65" width="25.59" height="11.5"/>
      <rect class="cls-11" x="358.1" y="124.34" width="25.59" height="11.5"/>
      <rect class="cls-11" x="388.15" y="90.96" width="38.95" height="11.5"/>
      <rect class="cls-11" x="388.15" y="107.65" width="38.95" height="11.5"/>
      <rect class="cls-11" x="388.15" y="124.34" width="38.95" height="11.5"/>
      <g>
        <circle class="cls-22" cx="360.41" cy="95.61" r="28.1" transform="translate(36.96 281.12) rotate(-44.69)"/>
        <line class="cls-22" x1="340.44" y1="115.37" x2="332.79" y2="122.93"/>
        <path class="cls-7" d="M315.14,118.54h13.6a2.33,2.33,0,0,1,2.33,2.33v20.62a8.21,8.21,0,0,1-8.21,8.21H321a8.21,8.21,0,0,1-8.21-8.21V120.87A2.33,2.33,0,0,1,315.14,118.54Z" transform="translate(190.87 -189.07) rotate(45.31)"/>
      </g>
      <path class="cls-9" d="M343.6,112.24a24,24,0,0,0,2.28,2V95.61h-9.27v3H337A23.45,23.45,0,0,0,343.6,112.24Z"/>
      <path class="cls-9" d="M358.49,119.15V88h-9.27v28.46a23.44,23.44,0,0,0,9.1,2.7Z"/>
      <path class="cls-9" d="M371.09,75.75h-9.27v43.4h.85a23.35,23.35,0,0,0,8.42-2.44Z"/>
      <path class="cls-9" d="M377,112.42a23.46,23.46,0,0,0,6.65-13V61h-9.27v53.62a24,24,0,0,0,2.62-2.21Z"/>
    </g>
    <g>
      <path class="cls-9" d="M463.34,347.91c1.17.78,13.7,8.22,22.31,34.45s16.44,66.93,32.49,82.2,21.53,15.27,21.53,15.27-21.92,21.14-45.4,22.31-28.57-4.7-38.36-5.48-23.09,9-45.8,13.7-48.93,5.48-62.24-7-21.53-20.75-32.49-22.7-26.23,6.65-26.23,6.65,12.13-28.57,26.62-47.75,19.57-32.49,20-49.71-.16-44.62,5-56.76l5.17-12.13Z"/>
      <g>
        <path class="cls-16" d="M399.56,668.09s-12.3,38.36,3.36,41.75,13-19.83,13-24.79-2.42-14.61-2.42-14.61Z"/>
        <path class="cls-17" d="M362.74,552.75s9.88,2.35,12.38,5.48,4.58,12.26,4.58,12.26l7-15.66-5.22-12.26L367.7,538.4Z"/>
        <path class="cls-17" d="M399.56,647.33v20.76s-3.68,18,6.49,18.79,7-21.4,7-21.4l.45-20.61Z"/>
        <path class="cls-16" d="M429.45,313.85a41.7,41.7,0,0,0,7.18-3.36c2-1.36,4.06-2.29,4.37-5a19,19,0,0,0-.59-5.34,15.22,15.22,0,0,1,.71-8.89c.5-1.11,1.2-2.12,1.72-3.21,1.82-3.81,1.56-8.31-1.53-11.33-1.76-1.73-3.92-3-5.68-4.73-7.84-7.69-.81-17.2-5.22-25.59a12,12,0,0,0-2.43-2.86c-6-5.8-10.45-12.78-14.65-19.91-1.67-2.83-3.47-5.79-6.33-7.4a15.35,15.35,0,0,0-4.58-1.51c-9.71-1.92-22.51-.67-30.41,5.88a40.33,40.33,0,0,0-8,8.3c-3.83,5.76-3.62,13.24-5.51,19.67a27.49,27.49,0,0,1-7.87,12.22c-3.26,3.11-5.13,5.64-5.15,10.31a7.71,7.71,0,0,0,.66,2.91,10,10,0,0,1-1,8.75c-1.24,2-2.83,3.84-3.72,6-3.77,9.4,8,13.29,8,22,0,1.47-.24,2.94-.17,4.4.47,9.25,18.89,8.67,25.07,9.62,13.79,2.12,27.48,3.62,40.3-3,3.71-1.92,7.24-4.14,10.9-6.14A37.83,37.83,0,0,1,429.45,313.85Z"/>
        <path class="cls-16" d="M351.39,421.89s-3,.39-4.31,5.09-9.39,20.88-14.09,26.09-36,41.49-38.88,64.19,17.87,24,28.64,28.18S358,555.88,358,555.88s3.65,1.83,5.22,1.83,9.13-21.92,9.13-21.92,1-3.65-5-5.48-29.75-14.61-29.75-14.61l37.43-25.9,9.53,51.73-3.12,1a71.1,71.1,0,0,1,1.3,16.7c-.52,8.09-3.13,11.22-3.13,11.22s1.3,19.83,3.39,20.09,5-3.65,5.48-6.52l.52-2.87,7,64.71a46.51,46.51,0,0,0,9.13,3.13c5.48,1.3,14.87-2.35,14.87-2.35S428,598.42,425.63,577s-2.35-51.93-1-63.67,7-88.46,7-90S351.39,421.89,351.39,421.89Z"/>
        <path class="cls-17" d="M271.93,310.46s-25-11.61-26-12.92-2-4.5-4.57-5.61-11.61-3.85-14.22-5.09-4.18-1.3-4.18,0,2.48,3.46,4.24,4.57l1.76,1.11a26.09,26.09,0,0,0,.26,5l.39,1.7s-2.54-.85-2.87.46,2,1.63,3,2.74,3.85,4.37,7.63,5.28,7.57.33,8.29.85l20.85,15Z"/>
        <path class="cls-7" d="M345.91,351s3.91,45.4,3.13,55.19-3.52,13.7,2.35,15.66S430.46,427,430.46,427s5.48-1.17,5.48-5.87.78-45.4,2.74-52.84l2-7.44s32.49,9,39.53,12.13,20,7.83,23.09-5.48S495,347.91,495,347.91s-61.42-39.07-64.58-40.84-39.79-11.35-41.1-11.35-20.61,5.35-20.61,5.35l-11.22,2.87s-22.05,14.87-40.45,14.87-39.53-9.92-39.53-9.92-3.78-1.57-5.61,1.57-6.39,15.92-6.39,15.92-.91,1.83,5.48,7,16.57,16.44,43.45,18S345.91,351,345.91,351Z"/>
        <path class="cls-17" d="M393.79,232.57s-7.83,8.87-14.87,12.79a70.74,70.74,0,0,1-10.18,5l1.45,21.92A13,13,0,0,0,380.27,284l1,.22v8.09l-2.87,1.3-3.28,7.83s-3.24,7,7.72,10.18,19-9.92,19-9.92l3.13-8.87L402.4,291s-1.57-8.35,1-13.57,6.78-16.7,3.65-23.49S394.31,247.7,393.79,232.57Z"/>
        <path class="cls-9" d="M405,292.85l25.44,14.22S420,315.81,410,311.24s-8.09-9.52-8.09-9.52Z"/>
        <path class="cls-9" d="M375.12,301.46s-4,8.35-10.68,9.66-6.92-7.18-6.92-7.18,16.57-9.26,20.88-10.31Z"/>
        <polygon class="cls-9" points="384.65 326.01 390.68 338.24 404.17 340.2 394.41 349.71 396.71 363.14 384.65 356.8 372.59 363.14 374.89 349.71 365.13 340.2 378.62 338.24 384.65 326.01"/>
        <path class="cls-17" d="M488.78,372.57c16.38,6.39,15-25.05,15-25.05l.09-27.79s7.88-14.48,7.78-17.32-10.47-12.72-10.47-12.72,2.25-6.26,1.27-7.14-2.35-1.37-4.11,1.76-6.07,14.68-6,18.1,1.66,11.94,1.57,13.6-11.25,39.63-11.25,39.63S479,368.75,488.78,372.57Z"/>
      </g>
    </g>
  </g>
</svg>
